<?xml version="1.0" encoding="utf-8"?>
<!-- Generator: Adobe Illustrator 24.0.0, SVG Export Plug-In . SVG Version: 6.00 Build 0)  -->
<svg version="1.1" id="Layer_1" xmlns="http://www.w3.org/2000/svg" xmlns:xlink="http://www.w3.org/1999/xlink" x="0px" y="0px"
	 viewBox="0 0 20 20" style="enable-background:new 0 0 20 20;" xml:space="preserve">
<style type="text/css">
	.st0{fill:#FCD559;}
	.st1{fill:#121212;}
</style>
<title>Artboard 1</title>
<polygon class="st0" points="5.6,12.4 1.1,8.1 7.2,7.2 10,1.6 12.8,7.2 18.9,8.1 14.4,12.4 15.5,18.6 10,15.7 4.5,18.6 "/>
<path class="st1" d="M10,2.8l2.2,4.4l0.2,0.5l0.5,0.1l4.9,0.7l-3.5,3.4l-0.4,0.4l0.1,0.5l0.8,4.9l-4.4-2.3L10,15.1l-0.5,0.2
	l-4.4,2.3L6,12.8l0.1-0.5l-0.4-0.4L2.2,8.5l4.9-0.7l0.5-0.1l0.2-0.5L10,2.8 M10,0.5L6.9,6.8L0,7.8l5,4.9l-1.2,6.9l6.2-3.2l6.2,3.2
	L15,12.6l5-4.9l-6.9-1L10,0.5z"/>
</svg>
