<svg version="1.1" id="Layer_1" xmlns="http://www.w3.org/2000/svg" x="0" y="0" viewBox="0 0 80 80" xml:space="preserve"><style>.st0{fill:#fff;stroke:#4a4a4a;stroke-width:5.52;stroke-miterlimit:10}</style><title>Asset 1</title><g id="a9ed83df-6b5a-410d-86d2-88e54522f5f1"><g id="e02d2646-e0ef-4d12-baf7-118e40b8f89a"><path class="st0" d="M9.4 3.1h43.5c.6 0 1.1.2 1.5.6l16.5 17.5c.4.4.6.9.6 1.5v53c0 .7-.6 1.3-1.3 1.3H9.8c-.7 0-1.3-.6-1.3-1.3V4c0-.5.4-.9.9-.9z"/><path class="st0" d="M48.8 3.1v20.5c0 .6.4 1 1 1h21.6"/><path d="M21.4 38.6h38.7m-38.7 8.6h38.7m-38.7 8.6h38.7m-38.7 8.5h38.7" stroke-width="4" fill="#fff" stroke="#4a4a4a" stroke-miterlimit="10"/></g></g></svg>