<svg width="80" height="20" xmlns="http://www.w3.org/2000/svg"><g id="svg_1"><path id="svg_2" d="M70.395 2.259c-.15-.385-.396-.385-.546 0l-1.966 5.049c-.15.385-.612.699-1.025.699l-1.757.169c-.414 0-.495.219-.18.487l1.314.981c.315.268.5.816.409 1.22l-1.478 6.562c-.09.403.119.547.465.319l3.863-2.539c.346-.228.91-.228 1.257 0l3.863 2.539c.346.228.555.084.465-.319l-1.051-4.707c-.09-.403.094-.952.408-1.22l3.532-3.006c.314-.268.233-.487-.18-.487h-4.399c-.413 0-.875-.314-1.025-.699l-1.97-5.048z" fill="#FEF6A8"/><path id="svg_3" fill="#807640" d="M62.545 5l2.556 2.547L67.657 5l1.42 1.415-2.555 2.546 2.552 2.544-1.418 1.414-2.554-2.544-2.555 2.544-1.42-1.414 2.556-2.545-2.557-2.546z"/><path id="svg_4" d="M64.93 13.897s.134-.516.654-.349c.518.166.303.674.303.674l-.722 3.204c-.061.273.016.428.179.428a.557.557 0 00.286-.107l3.863-2.539c.175-.115.402-.172.63-.172s.454.057.627.172l3.863 2.539c.111.072.21.107.286.107.165 0 .241-.154.179-.428l-1.051-4.707c-.09-.402.094-.951.41-1.219l3.531-3.007c.315-.269.233-.487-.18-.487h-4.4c-.414 0-.875-.314-1.026-.699l-1.966-5.049c-.076-.192-.175-.287-.273-.287s-.198.096-.273.288l-.462 1.158s-.256.409-.638.219c-.441-.221-.228-.66-.228-.66l.39-1.078c.338-.861 1.013-.927 1.21-.927s.873.066 1.208.926l1.97 5.049.11.062 4.377-.001c.938 0 1.235.609 1.306.796.069.187.24.844-.472 1.451l-3.534 3.007a.467.467 0 00-.078.25l1.049 4.699c.133.596-.052.984-.23 1.205a1.187 1.187 0 01-.93.439c-.28 0-.563-.092-.84-.273l-3.862-2.539v.002l-.074-.008-.089.014-3.85 2.531a1.52 1.52 0 01-.84.273c-.364 0-.704-.16-.928-.439-.178-.221-.362-.609-.23-1.205l.746-3.313z" fill="#80722D"/></g><g id="svg_5"><path id="svg_6" d="M54.759 18.355c-.18 0-.369-.064-.561-.191l-3.848-2.539c-.083-.055-.215-.088-.351-.088s-.268.033-.351.088L45.8 18.164a1.021 1.021 0 01-.561.191.68.68 0 01-.535-.252c-.109-.136-.22-.383-.131-.784l1.047-4.708c.05-.222-.071-.584-.243-.731L41.86 8.874c-.451-.386-.378-.756-.326-.897.053-.141.237-.47.831-.47h4.381c.206 0 .48-.188.556-.38l1.961-5.049c.213-.549.587-.608.737-.608s.524.059.737.607l1.959 5.049c.075.191.35.38.556.38h4.383c.594 0 .778.329.831.47.052.142.125.512-.326.897l-3.518 3.006c-.173.147-.294.51-.244.731l1.047 4.708c.089.401-.021.647-.131.784a.674.674 0 01-.535.253z" fill="#FEF6A8"/><path id="svg_7" d="M50 1.97c.099 0 .196.096.271.289l1.959 5.049c.149.385.609.699 1.021.699h4.383c.412 0 .493.219.18.487L54.297 11.5c-.313.268-.497.816-.407 1.22l1.047 4.708c.061.273-.015.428-.178.428a.55.55 0 01-.285-.108l-3.848-2.539c-.173-.113-.399-.171-.626-.171s-.453.058-.626.171l-3.848 2.539a.55.55 0 01-.285.108c-.163 0-.238-.154-.178-.428l1.047-4.708c.09-.403-.094-.952-.407-1.22l-3.518-3.006c-.313-.268-.232-.487.18-.487h4.381c.412 0 .872-.314 1.021-.699l1.961-5.049c.076-.193.173-.289.272-.289m0-1c-.198 0-.87.067-1.204.927l-1.961 5.049-.109.062-4.36-.001c-.934 0-1.231.61-1.3.797-.069.187-.239.844.471 1.451l3.518 3.005a.466.466 0 01.079.25l-1.046 4.701c-.132.595.052.983.229 1.205.224.279.561.439.925.439.28 0 .562-.093.836-.273l3.848-2.539.001.001.074-.007.089.014 3.834 2.531c.274.181.557.273.836.273.364 0 .701-.16.925-.439.178-.222.361-.61.229-1.206l-1.046-4.707a.456.456 0 01.086-.248l3.512-3c.71-.607.54-1.264.471-1.451-.068-.187-.366-.797-1.3-.797h-4.383l-.098-.08-1.95-5.03C50.87 1.037 50.198.97 50 .97z" fill="#80722D"/></g><g id="svg_8"><path id="svg_9" d="M24.614 14.96s.134-.516.657-.349c.52.166.305.674.305.674l-.482 2.142c-.061.273.017.428.18.428a.562.562 0 00.288-.107l3.882-2.539c.176-.115.404-.172.633-.172s.457.057.63.172l3.883 2.539c.112.072.21.107.287.107.166 0 .243-.154.18-.428l-1.056-4.707c-.091-.402.094-.951.411-1.219l3.55-3.007c.317-.269.234-.487-.182-.487h-4.422c-.416 0-.879-.314-1.03-.699L30.35 2.259c-.076-.193-.175-.288-.274-.288s-.199.096-.274.288l-1.39 3.538s-.256.409-.64.219c-.444-.221-.229-.66-.229-.66l.613-1.658.703-1.801c.34-.86 1.018-.926 1.217-.926s.877.066 1.214.926l1.978 5.049.11.062 4.4-.001c.943 0 1.241.609 1.313.796.069.187.24.844-.475 1.451l-3.552 3.007a.465.465 0 00-.079.25l1.055 4.699c.134.596-.052.984-.231 1.205a1.195 1.195 0 01-.935.439 1.54 1.54 0 01-.843-.273l-3.883-2.539v.002l-.074-.008-.09.014-3.87 2.531a1.527 1.527 0 01-.843.273 1.19 1.19 0 01-.932-.439c-.18-.221-.365-.609-.232-1.205l.506-2.25z" fill="#5A563B" opacity=".7"/><path id="svg_10" fill="#807640" d="M20.996 7.96h3.027v-3h2.018v3h3.027v1.999H26.04v3.001h-2.018V9.959h-3.027z"/></g><path id="svg_11" d="M10 1.97c.098 0 .197.096.271.289l1.959 5.049c.149.385.609.699 1.021.699h4.383c.412 0 .493.219.18.487L14.297 11.5c-.313.268-.497.816-.407 1.22l1.047 4.707c.061.273-.015.428-.178.428a.55.55 0 01-.285-.108l-3.848-2.539c-.172-.114-.399-.171-.626-.171s-.454.057-.626.171l-3.848 2.539a.55.55 0 01-.285.108c-.163 0-.239-.154-.178-.428L6.11 12.72c.09-.403-.094-.951-.407-1.22L2.185 8.494c-.313-.268-.233-.487.18-.487h4.382c.413 0 .872-.314 1.021-.699l1.96-5.049c.075-.193.173-.289.272-.289m0-1c-.198 0-.87.067-1.204.927l-1.96 5.049-.109.062-4.362-.001c-.934 0-1.231.61-1.3.796-.069.187-.239.844.47 1.451l3.519 3.007a.465.465 0 01.079.249l-1.046 4.7c-.133.595.051.983.229 1.205.224.279.561.439.925.439.28 0 .562-.093.836-.274l3.848-2.538v.001l.075-.007.088.014 3.834 2.531c.274.181.557.273.836.273.364 0 .701-.16.925-.439.178-.222.361-.61.229-1.206l-1.047-4.706a.456.456 0 01.086-.248l3.512-3c.71-.607.54-1.264.471-1.451-.068-.187-.366-.797-1.3-.797h-4.383l-.098-.08-1.95-5.03C10.87 1.037 10.198.97 10 .97z" fill="#5A563B" opacity=".7"/></svg>