<svg xmlns="http://www.w3.org/2000/svg" viewBox="0 0 36 36"><title>Asset 7</title><g id="fd65bbb8-d06d-41af-bb04-c2eaa0d76e20" data-name="Layer 2"><g id="ff1b6bf5-5a57-41c6-bfa8-af2fbea2ad98" data-name="Block"><path d="M33.43,2.57V33.43H2.57V2.57H33.43M36,0H0V36H36V0Z"/><path d="M27.39,22.1a4.75,4.75,0,0,1-1.62,3.62c-1.07,1-3,1.5-5.89,1.5-.86,0-1.81,0-2.85-.07s-2-.06-2.77-.06-1.71,0-2.68.06-1.89.07-2.76.07q-.08,0-.15-.21a1.41,1.41,0,0,1-.06-.37,1.34,1.34,0,0,1,.06-.35q.08-.21.15-.24a3.74,3.74,0,0,0,2.06-.66,2.15,2.15,0,0,0,.49-1.57V12.18a2.15,2.15,0,0,0-.49-1.57A3.74,3.74,0,0,0,8.82,10q-.08,0-.15-.24a1.34,1.34,0,0,1-.06-.35A1.41,1.41,0,0,1,8.67,9q.08-.21.15-.21c.87,0,1.76,0,2.68.06s1.79.07,2.6.07,1.68,0,2.59-.07,1.8-.06,2.66-.06q3.69,0,5.36,1.15a3.45,3.45,0,0,1,.35,5.67,7.42,7.42,0,0,1-3.88,1.54A6.87,6.87,0,0,1,25.8,18.8,4.51,4.51,0,0,1,27.39,22.1Zm-6.5-8.84a3.72,3.72,0,0,0-.64-2.44,2.58,2.58,0,0,0-2.06-.74h-.32a1.58,1.58,0,0,0-.91.24,1.12,1.12,0,0,0-.34,1v5.36H18a2.69,2.69,0,0,0,2.2-.81A4.09,4.09,0,0,0,20.89,13.26Zm1,8.57a4.38,4.38,0,0,0-.84-2.9,3.07,3.07,0,0,0-2.48-1h-2v6.32a1.55,1.55,0,0,0,.48,1.27,1.94,1.94,0,0,0,1.3.4,3.6,3.6,0,0,0,2.4-1A3.89,3.89,0,0,0,21.93,21.83Z"/></g></g></svg>