<svg xmlns="http://www.w3.org/2000/svg" viewBox="0 0 32.5 28.5"><defs><style>.bee46bd5-99b1-476d-80d9-6a3228b345a5{fill:#121212;stroke:#121212;stroke-miterlimit:10;stroke-width:0.5px;}</style></defs><title>Asset 3</title><g id="b2c3bc86-e598-4d01-b2fb-3f608546ca59" data-name="Layer 2"><g id="a3464e40-8484-45e1-b13b-3aae962e5eab" data-name="galleries"><g id="ea467f0f-5f92-4d06-a144-a2a5ca7a52b1" data-name="Layer 1"><path class="bee46bd5-99b1-476d-80d9-6a3228b345a5" d="M28.25,23.58h4V.25H4.92v4H.25v24h28Zm-22-22H30.92V22.25H28.25v-18h-22Zm-1.33,4h22v5.07L24.25,8,12.92,19.32,6.25,12.65,1.58,17.32V5.58Zm22,21.34H1.58V19.18l4.67-4.66,6.67,6.66L24.25,9.85l2.67,2.67v14.4Z"/><path class="bee46bd5-99b1-476d-80d9-6a3228b345a5" d="M12.92,14.25a3.34,3.34,0,1,0-3.34-3.33A3.3,3.3,0,0,0,12.92,14.25Zm0-5.33a2,2,0,1,1-2,2A2,2,0,0,1,12.92,8.92Z"/></g></g></g></svg>