<svg xmlns="http://www.w3.org/2000/svg" viewBox="0 0 36 15.03"><defs><style>.b7defd26-00a8-4ada-82b6-50e22f811f15{fill:#121212;}</style></defs><title>Asset 12</title><g id="b158ab45-110e-4ddd-a37f-fb8388ef8c45" data-name="Layer 2"><g id="f9d64862-4a2c-4244-a2d3-83dacb03e4c9" data-name="link"><path class="b7defd26-00a8-4ada-82b6-50e22f811f15" d="M13.37,15H6.57A6.57,6.57,0,0,1,0,8.46V6.57A6.58,6.58,0,0,1,6.57,0h6.8a6.58,6.58,0,0,1,6.57,6.57V8.46A6.57,6.57,0,0,1,13.37,15ZM6.57,4A2.57,2.57,0,0,0,4,6.57V8.46A2.57,2.57,0,0,0,6.57,11h6.8a2.58,2.58,0,0,0,2.57-2.57V6.57A2.58,2.58,0,0,0,13.37,4Z"/><path class="b7defd26-00a8-4ada-82b6-50e22f811f15" d="M29.43,15h-6.8a6.57,6.57,0,0,1-6.57-6.57V6.57A6.58,6.58,0,0,1,22.63,0h6.8A6.58,6.58,0,0,1,36,6.57V8.46A6.57,6.57,0,0,1,29.43,15ZM22.63,4a2.58,2.58,0,0,0-2.57,2.57V8.46A2.58,2.58,0,0,0,22.63,11h6.8A2.57,2.57,0,0,0,32,8.46V6.57A2.57,2.57,0,0,0,29.43,4Z"/><path class="b7defd26-00a8-4ada-82b6-50e22f811f15" d="M10.71,7.52s.06-.82,1.62-1.41a15.78,15.78,0,0,1,5.73-1.05,15.53,15.53,0,0,1,5.73,1.05c1.56.58,1.63,1.41,1.63,1.41s-.07.82-1.63,1.4A15.33,15.33,0,0,1,18.06,10a15.78,15.78,0,0,1-5.73-1.05C10.77,8.34,10.71,7.52,10.71,7.52Z"/></g></g></svg>