<svg xmlns="http://www.w3.org/2000/svg" viewBox="0 0 36 25.9"><defs><style>.f17c12a8-8061-476d-9c87-6c405b9ad6c4{fill:#121212;}</style></defs><title>Asset 10</title><g id="e8e4f963-19ff-4d37-8de7-49eb7e925256" data-name="Layer 2"><g id="e84f7a3a-d196-42be-9db0-25ac63477ce0" data-name="pullquote"><path class="f17c12a8-8061-476d-9c87-6c405b9ad6c4" d="M0,23.4c6.45-1.16,11.07-5.49,11.07-10.5,0-.58-.39-.58-.77-.29a7,7,0,0,1-3.76,1.06C3.37,13.67.48,11.08.58,7A7.24,7.24,0,0,1,7.8,0c5.49,0,8.57,4.33,8.57,10.31C16.37,20,7.7,25.42.48,25.9Zm19.54,0c6.54-1.16,11.17-5.49,11.17-10.5,0-.58-.38-.58-.78-.29a7.24,7.24,0,0,1-3.74,1.06c-3.19,0-6.07-2.59-6.07-6.64a7.38,7.38,0,0,1,7.31-7C32.92,0,36,4.33,36,10.31,36,20,27.34,25.42,20.12,25.9Z"/></g></g></svg>