<svg xmlns="http://www.w3.org/2000/svg" viewBox="0 0 36 34.02"><title>Asset 9</title><g id="e47e8bc9-ca6b-44be-bf02-51ac9d16ca9a" data-name="Layer 2"><g id="a31600f8-425b-4214-803a-7973608b0593" data-name="text"><path d="M36,11.74c0,.16-.12.31-.36.44a1.75,1.75,0,0,1-.85.19,2.64,2.64,0,0,1-.53-.07c-.22-.05-.35-.11-.38-.17a16.43,16.43,0,0,0-3.22-5.87C29,4.12,27.39,3,25.9,3h-.72a2.32,2.32,0,0,0-1.6.46,1.9,1.9,0,0,0-.48,1.43v22.9A3.93,3.93,0,0,0,24,30.69q.91.91,3.72,1.2c.1,0,.18.14.26.42a2.44,2.44,0,0,1,.12.65,2.26,2.26,0,0,1-.12.67c-.08.26-.16.39-.26.39-1.55,0-3.13,0-4.76-.12s-3.17-.12-4.62-.12-3,0-4.64.12-3.2.12-4.78.12q-.15,0-.27-.39a1.82,1.82,0,0,1,0-1.3c.08-.26.17-.4.27-.44,1.9-.22,3.15-.62,3.74-1.2a3.84,3.84,0,0,0,.9-2.86V4.93a2,2,0,0,0-.44-1.48A2.44,2.44,0,0,0,11.5,3h-.39C9.79,3,8.17,4,6.23,6a18.19,18.19,0,0,0-4.1,6.11c0,.1-.16.16-.37.19a4,4,0,0,1-.5,0,2,2,0,0,1-.85-.19C.14,12.05,0,11.9,0,11.74Q.48,9.33,1,5.82T1.84,0A51.72,51.72,0,0,0,7.1.48q3.59.2,11.26.2,6.57,0,11-.2A46.7,46.7,0,0,0,35.08,0c.1,1.55.23,3.38.39,5.51S35.81,9.71,36,11.74Z"/></g></g></svg>