<svg xmlns="http://www.w3.org/2000/svg" xmlns:xlink="http://www.w3.org/1999/xlink"><symbol id="excel" viewBox="0 0 80 80" xmlns="http://www.w3.org/2000/svg"><style>.ast0{fill:none;stroke:#4a4a4a;stroke-width:5.5224;stroke-miterlimit:10}</style><path class="ast0" d="M9.4 3h43.5c.6 0 1.1.2 1.5.6l16.5 17.5c.4.4.6 1 .6 1.5v53c0 .7-.6 1.3-1.3 1.3H9.8c-.7 0-1.3-.6-1.3-1.3V3.9c0-.5.4-.9.9-.9z"/><path class="ast0" d="M48.8 3v20.5c0 .5.4 1 1 1h21.6"/><path d="M46.2 38.2h-4.6v-4.9H56v4.9h-3.8l-9.4 12.7 9.6 13.5H57v4.9H46.6v-4.4L39.7 55 33 64.4h4.6v4.9H22.9v-4.9h4l9.9-13.6-8.9-12.6h-4.2v-4.9h9.9v4.5l6.2 8.9 6.4-8.5z" fill="#44840a"/></symbol><symbol id="generic" viewBox="0 0 80 80" xml:space="preserve" xmlns="http://www.w3.org/2000/svg"><style>.bst0{fill:#fff;stroke:#4a4a4a;stroke-width:5.52;stroke-miterlimit:10}</style><g id="ba9ed83df-6b5a-410d-86d2-88e54522f5f1"><g id="be02d2646-e0ef-4d12-baf7-118e40b8f89a"><path class="bst0" d="M9.4 3.1h43.5c.6 0 1.1.2 1.5.6l16.5 17.5c.4.4.6.9.6 1.5v53c0 .7-.6 1.3-1.3 1.3H9.8c-.7 0-1.3-.6-1.3-1.3V4c0-.5.4-.9.9-.9z"/><path class="bst0" d="M48.8 3.1v20.5c0 .6.4 1 1 1h21.6"/><path d="M21.4 38.6h38.7m-38.7 8.6h38.7m-38.7 8.6h38.7m-38.7 8.5h38.7" stroke-width="4" fill="#fff" stroke="#4a4a4a" stroke-miterlimit="10"/></g></g></symbol><symbol id="pdf" viewBox="0 0 80 80" xmlns="http://www.w3.org/2000/svg"><style>.cst0{fill:none;stroke:#4a4a4a;stroke-width:5.5224;stroke-miterlimit:10}</style><path class="cst0" d="M9.4 3h43.5c.6 0 1.1.2 1.5.6l16.5 17.5c.4.4.6 1 .6 1.5v53c0 .7-.6 1.3-1.3 1.3H9.8c-.7 0-1.3-.6-1.3-1.3V3.9c0-.5.4-.9.9-.9z"/><path class="cst0" d="M48.8 3v20.5c0 .5.4 1 1 1h21.6"/><path d="M28.4 58.2c9.9-12.1 14.5-50.6 7.7-33.1C28.4 45 72.6 63.7 61.5 52.7c-7.7-7.7-47.5 6.6-43 14.4 1.6 2.8 7.8-6.3 9.9-8.9z" stroke="#e5112c" stroke-width="2.209" fill="none" stroke-miterlimit="10"/></symbol><symbol id="powerpoint" viewBox="0 0 80 80" xmlns="http://www.w3.org/2000/svg"><style>.dst0{fill:none;stroke:#4a4a4a;stroke-width:5.5224;stroke-miterlimit:10}</style><path class="dst0" d="M9.4 3h43.5c.6 0 1.1.2 1.5.6l16.5 17.5c.4.4.6 1 .6 1.5v53c0 .7-.6 1.3-1.3 1.3H9.8c-.7 0-1.3-.6-1.3-1.3V3.9c0-.5.4-.9.9-.9z"/><path class="dst0" d="M48.8 3v20.5c0 .5.4 1 1 1h21.6"/><path d="M28.4 38.8h-4.3V34h20.1c16.7 0 16.7 23.3 0 23.4H33.6v7.2H38v4.8H24.4v-4.8h4V38.8zm15.8 13.8c3.8.2 7.1-2.7 7.3-6.5S48.8 39 45 38.8H33.6v13.8h10.6z" fill="#b85c00"/></symbol><symbol id="word" viewBox="0 0 80 80" xmlns="http://www.w3.org/2000/svg"><style>.est0{fill:none;stroke:#4a4a4a;stroke-width:5.5224;stroke-miterlimit:10}</style><path class="est0" d="M9.4 3h43.5c.6 0 1.1.2 1.5.6l16.5 17.5c.4.4.6 1 .6 1.5v53c0 .7-.6 1.3-1.3 1.3H9.8c-.7 0-1.3-.6-1.3-1.3V3.9c0-.5.4-.9.9-.9z"/><path class="est0" d="M48.8 3v20.5c0 .5.4 1 1 1h21.6"/><path d="M51.6 68.9h-4.4l-7.5-23.7-7.3 23.7h-4.6l-9-30.9h-3.1v-4.9h11.5V38h-3.4l6.5 23.3 7.9-27.2h3l8 27.2L55.6 38h-3.4v-4.9h11.6V38h-3l-9.2 30.9z" fill="#0077c0"/></symbol></svg>