<?xml version="1.0" encoding="utf-8"?>
<!-- Generator: Adobe Illustrator 23.1.1, SVG Export Plug-In . SVG Version: 6.00 Build 0)  -->
<svg version="1.1" id="Layer_1" xmlns="http://www.w3.org/2000/svg" xmlns:xlink="http://www.w3.org/1999/xlink" x="0px" y="0px"
	 viewBox="0 0 73.3 72.9" style="enable-background:new 0 0 73.3 72.9;" xml:space="preserve">
<style type="text/css">
	.st0{fill:#FCD105;}
	.st1{fill:#121212;}
</style>
<title>Asset 2</title>
<g id="abce38b7-54b0-492b-bc2f-88ea3fa9ef43">
	<g id="add85efb-1330-4f3c-8dd7-0df3e7237777">
		<path class="st0" d="M34.7,1.2L0.2,69.8c-0.5,1.1-0.1,2.4,0.9,2.9c0.3,0.2,0.6,0.2,1,0.2h69c1.2,0,2.2-1,2.2-2.1
			c0-0.3-0.1-0.7-0.2-1L38.6,1.2c-0.5-1.1-1.8-1.5-2.9-1C35.3,0.4,34.9,0.8,34.7,1.2z"/>
		<path class="st1" d="M32.2,58.1c-0.1-1.1,0.4-2.2,1.2-2.9c0.8-0.7,1.9-1.1,3-1.1c1.2-0.1,2.3,0.3,3.2,1.1c0.8,0.8,1.2,1.8,1.2,2.9
			c0.1,1.1-0.4,2.2-1.2,3c-0.9,0.8-2,1.2-3.2,1.1c-1.1,0-2.2-0.4-3-1.1C32.5,60.3,32.1,59.2,32.2,58.1z M32.9,24.8h7V42l-1.4,8.6
			h-4.3L32.9,42L32.9,24.8z"/>
	</g>
</g>
</svg>
