<?xml version="1.0" standalone="no"?>
<!DOCTYPE svg PUBLIC "-//W3C//DTD SVG 20010904//EN"
 "http://www.w3.org/TR/2001/REC-SVG-20010904/DTD/svg10.dtd">
<svg version="1.0" xmlns="http://www.w3.org/2000/svg"
 width="215.000000pt" height="215.000000pt" viewBox="0 0 215.000000 215.000000"
 preserveAspectRatio="xMidYMid meet">
<metadata>
Created by potrace 1.11, written by Peter Selinger 2001-2013
</metadata>
<g transform="translate(0.000000,215.000000) scale(0.100000,-0.100000)"
fill="#000000" stroke="none">
<path d="M1135 1933 c-55 -69 -105 -131 -110 -137 -6 -6 -26 -31 -45 -56 -19
-25 -43 -54 -52 -65 -9 -11 -112 -139 -228 -285 -116 -146 -219 -274 -228
-285 -9 -11 -41 -50 -70 -88 l-54 -67 275 0 275 0 -1 -425 c0 -234 2 -427 5
-430 5 -5 866 1067 874 1088 3 9 -59 12 -253 12 -142 -1 -263 1 -269 3 -8 2
-11 125 -10 423 1 232 -1 425 -4 429 -3 5 -50 -48 -105 -117z"/>
<path d="M1448 1873 c-4 -7 -3 -103 1 -143 1 -13 21 -15 123 -13 68 1 144 2
171 2 l47 1 0 80 0 80 -169 0 c-94 0 -171 -3 -173 -7z"/>
<path d="M1445 1475 c0 -46 5 -79 12 -83 9 -5 219 -7 315 -3 15 1 17 12 16 81
l-2 80 -171 0 -170 0 0 -75z"/>
</g>
</svg>
